<svg height="512" viewBox="0 0 56 58" width="512" xmlns="http://www.w3.org/2000/svg"><g id="003---Cooking" fill="none"><path id="Shape" d="m13 28h-6c-2.209139 0-4-1.790861-4-4s1.790861-4 4-4h6c.5522847 0 1 .4477153 1 1v6c0 .5522847-.4477153 1-1 1zm-6-6c-1.1045695 0-2 .8954305-2 2s.8954305 2 2 2h5v-4z" fill="#7f8284"/><path id="Shape" d="m49 28h-6c-.5522847 0-1-.4477153-1-1v-6c0-.5522847.4477153-1 1-1h6c2.209139 0 4 1.790861 4 4s-1.790861 4-4 4zm-5-2h5c1.1045695 0 2-.8954305 2-2s-.8954305-2-2-2h-5z" fill="#7f8284"/><path id="Shape" d="m3 45h50c1.6568542 0 3 1.3431458 3 3v10h-56v-10c0-1.6568542 1.34314575-3 3-3z" fill="#67b9cc"/><path id="Shape" d="m6 45h44c1.6568542 0 3 1.3431458 3 3v10h-50v-10c0-1.6568542 1.34314575-3 3-3z" fill="#2fa8cc"/><rect id="Rectangle-path" fill="#393f4a" height="5" rx="1" width="12" x="22" y="49"/><g fill="#d1d4d1"><circle id="Oval" cx="40.5" cy="51.5" r="2.5"/><circle id="Oval" cx="49.5" cy="51.5" r="2.5"/><path id="Shape" d="m12 20h32v19c0 3.3137085-2.6862915 6-6 6h-20c-3.3137085 0-6-2.6862915-6-6z"/></g><path id="Shape" d="m14 20h28v19c0 3.3137085-2.6862915 6-6 6h-16c-3.3137085 0-6-2.6862915-6-6z" fill="#a5a5a4"/><path id="Shape" d="m16 14.991c-.3737868-.0038401-.7142237-.2158325-.8825725-.5495839-.1683487-.3337514-.1364978-.7335308.0825725-1.0364161l.01-.013c.0283731-.0387846.0598069-.0752345.094-.109.570408-.7268736.6004161-1.7406604.074-2.5-.0329443-.0254298-.0643339-.0528123-.094-.082-1.3769026-1.53668602-1.3769026-3.86331398 0-5.4.0318449-.03003924.0652228-.05841051.1-.085.5255114-.75987002.4946984-1.77345476-.076-2.5-.0341931-.03376553-.0656269-.0702154-.094-.109-.3313104-.44357755-.2419275-1.0714919.2-1.405.4195328-.31499626 1.0117156-.24929551 1.352.15 1.3372486 1.54113945 1.3188203 3.8365297-.043 5.356-.0315925.03031983-.0649866.05870479-.1.085-.4984611.72783744-.4984611 1.68716256 0 2.415.0328302.02518481.0639024.05258186.093.082 1.373316 1.5311995 1.3789098 3.8491901.013 5.387-.1898291.1999633-.4532826.3134399-.729.314z" fill="#cbb292"/><path id="Shape" d="m21.247 14.991c-.3737868-.0038401-.7142237-.2158325-.8825725-.5495839-.1683487-.3337514-.1364978-.7335308.0825725-1.0364161l.01-.013c.0280202-.0387737.0591209-.0752251.093-.109.5706984-.7265452.6015114-1.74013.076-2.5-.0349399-.0256717-.0683315-.0533867-.1-.083-1.3759894-1.53703517-1.3759894-3.86296483 0-5.4.0313826-.03085989.0647902-.05959043.1-.086.5246074-.76039964.4929899-1.77378299-.078-2.5-.0338791-.03377485-.0649798-.07022628-.093-.109-.3313104-.44357755-.2419275-1.0714919.2-1.405.4206835-.31206044 1.010885-.2466279 1.353.15 1.3363578 1.54146787 1.3179349 3.83618702-.043 5.356-.0311405.03081639-.0645693.05923093-.1.085-.4968779.72796173-.4968779 1.68603827 0 2.414.0329544.02577474.0643433.05349054.094.083 1.3728627 1.5313736 1.3784557 3.8490182.013 5.387-.1887999.1993127-.4504749.313367-.725.316z" fill="#a59078"/><path id="Shape" d="m26.247 14.991c-.3737868-.0038401-.7142237-.2158325-.8825725-.5495839-.1683487-.3337514-.1364978-.7335308.0825725-1.0364161l.01-.013c.0280202-.0387737.0591209-.0752251.093-.109.5706984-.7265452.6015114-1.74013.076-2.5-.0349399-.0256717-.0683315-.0533867-.1-.083-1.3759894-1.53703517-1.3759894-3.86296483 0-5.4.0313826-.03085989.0647902-.05959043.1-.086.5246074-.76039964.4929899-1.77378299-.078-2.5-.0338791-.03377485-.0649798-.07022628-.093-.109-.3313104-.44357755-.2419275-1.0714919.2-1.405.4206835-.31206044 1.010885-.2466279 1.353.15 1.3363578 1.54146787 1.3179349 3.83618702-.043 5.356-.0311405.03081639-.0645693.05923093-.1.085-.4968779.72796173-.4968779 1.68603827 0 2.414.0329544.02577474.0643433.05349054.094.083 1.3728627 1.5313736 1.3784557 3.8490182.013 5.387-.1887999.1993127-.4504749.313367-.725.316z" fill="#cbb292"/><path id="Shape" d="m42.79.49h-.01c-1.4385431-.63118174-3.0717211-.65118612-4.5252926-.05542915-1.4535716.59575696-2.6029324 1.75620522-3.1847074 3.21542915l-5 16.35h8.79l6.84-11.69c.6750666-1.41960258.7466429-3.05203452.1984169-4.52527407-.548226-1.47323954-1.6695457-2.66176774-3.1084169-3.29472593zm-.98 7.21c-.66 1.52-2.02 2.39-3.04 1.95s-1.29-2.03-.62-3.55 2.02-2.39 3.03-1.95 1.3 2.04.63 3.55z" fill="#e64c3c"/><path id="Shape" d="m16 26c-.5522847 0-1-.4477153-1-1v-1c0-.5522847.4477153-1 1-1s1 .4477153 1 1v1c0 .5522847-.4477153 1-1 1z" fill="#d1d4d1"/><path id="Shape" d="m16 40c-.5522847 0-1-.4477153-1-1v-10c0-.5522847.4477153-1 1-1s1 .4477153 1 1v10c0 .5522847-.4477153 1-1 1z" fill="#d1d4d1"/><path id="Shape" d="m40.5 55c-1.9329966 0-3.5-1.5670034-3.5-3.5s1.5670034-3.5 3.5-3.5 3.5 1.5670034 3.5 3.5-1.5670034 3.5-3.5 3.5zm0-5c-.8284271 0-1.5.6715729-1.5 1.5s.6715729 1.5 1.5 1.5 1.5-.6715729 1.5-1.5-.6715729-1.5-1.5-1.5z" fill="#ecf0f1"/><path id="Shape" d="m49.5 55c-1.9329966 0-3.5-1.5670034-3.5-3.5s1.5670034-3.5 3.5-3.5 3.5 1.5670034 3.5 3.5-1.5670034 3.5-3.5 3.5zm0-5c-.8284271 0-1.5.6715729-1.5 1.5s.6715729 1.5 1.5 1.5 1.5-.6715729 1.5-1.5-.6715729-1.5-1.5-1.5z" fill="#ecf0f1"/><circle id="Oval" cx="40.5" cy="51.5" fill="#9fc9d3" r="2.5"/><circle id="Oval" cx="49.5" cy="51.5" fill="#9fc9d3" r="2.5"/></g></svg>