<svg height="512pt" viewBox="0 0 511 512" width="512pt" xmlns="http://www.w3.org/2000/svg"><path d="m495.820312 216.238281h-30.515624c-5.65625 0-10.640626 2.90625-13.554688 7.296875-23.328125-2.4375-26.4375-6.175781-28.957031-9.222656-3.429688-4.144531-7.496094-7.660156-12.089844-10.449219l-70.121094-42.59375c-14.28125-33.171875-38.167969-53.910156-55.894531-65.535156-6.902344-4.527344-11.023438-12.195313-11.023438-20.511719 0-4.90625 1.445313-9.648437 4.179688-13.71875l17.4375-25.953125c3.476562-5.167969 4.675781-11.371093 3.382812-17.464843-1.292968-6.09375-4.910156-11.273438-10.183593-14.589844-3.644531-2.285156-7.84375-3.496094-12.140625-3.496094h-82.851563c-4.300781 0-8.5 1.210938-12.140625 3.496094-5.273437 3.3125-8.890625 8.492187-10.183594 14.589844-1.292968 6.09375-.09375 12.296874 3.382813 17.464843l17.4375 25.953125c2.734375 4.070313 4.179687 8.8125 4.179687 13.71875 0 8.316406-4.121093 15.984375-11.023437 20.511719-26.269531 17.226563-84.972656 68-62.777344 167.230469 12.378907 55.347656 21.941407 94.355468 27.691407 113.125h-123.667969c-10.199219 0-19.117188 7.25-21.199219 17.234375l-4.226562 20.289062c-1.335938 6.410157.265624 13 4.398437 18.082031 4.128906 5.078126 10.253906 7.992188 16.800781 7.992188h425.507813c6.550781 0 12.671875-2.914062 16.804687-7.992188 4.128906-5.082031 5.730469-11.671874 4.394532-18.082031l-4.226563-20.289062c-2.082031-9.984375-11-17.234375-21.199219-17.234375h-123.667968c1.71875-5.613282 3.792968-13.082032 6.195312-22.332032h8.140625c23.886719 0 47.558594-3.566406 70.378906-10.601562l46.613281-5.875c2.785157 4.976562 8.101563 8.355469 14.203126 8.355469h30.515624c8.964844 0 16.261719-7.292969 16.261719-16.261719v-96.871094c0-8.96875-7.296875-16.265625-16.261719-16.265625zm-309.980468-195.039062c.441406-2.089844 1.679687-3.863281 3.488281-5 1.25-.785157 2.6875-1.199219 4.160156-1.199219h82.851563c1.472656 0 2.914062.414062 4.160156 1.199219 1.808594 1.136719 3.046875 2.910156 3.492188 5 .441406 2.085937.027343 4.214843-1.160157 5.984375l-8.628906 12.84375h-78.578125l-8.628906-12.84375c-1.191406-1.769532-1.601563-3.898438-1.15625-5.984375zm7.523437 87.078125c11.148438-7.308594 17.804688-19.667969 17.804688-33.054688 0-7.152344-1.929688-14.082031-5.5625-20.195312h58.617187c-3.632812 6.113281-5.558594 13.042968-5.558594 20.195312 0 13.386719 6.652344 25.746094 17.800782 33.054688 4.59375 3.011718 9.644531 6.699218 14.816406 11.132812h-112.691406c5.25-4.507812 10.3125-8.207031 14.773437-11.132812zm256.59375 288.109375 4.226563 20.289062c.5625 2.695313-.605469 4.636719-1.351563 5.554688-.746093.917969-2.410156 2.457031-5.164062 2.457031h-425.507813c-2.753906 0-4.417968-1.539062-5.164062-2.457031s-1.914063-2.859375-1.351563-5.554688l4.226563-20.289062c.640625-3.070313 3.382812-5.296875 6.515625-5.296875h417.050781c3.136719 0 5.875 2.226562 6.519531 5.296875zm-145.925781-20.296875h-138.234375c-3.089844-9.207032-10.933594-36.558594-28.796875-116.402344-7.53125-33.667969-5.730469-64.148438 5.316406-90.820312h27.628906c4.144532 0 7.5-3.355469 7.5-7.5 0-4.144532-3.355468-7.5-7.5-7.5h-20.191406c4.234375-7.296876 8.945313-13.761719 13.832032-19.457032h142.710937c4.898437 5.710938 9.597656 12.179688 13.808594 19.457032h-120.121094c-4.144531 0-7.5 3.355468-7.5 7.5 0 4.144531 3.355469 7.5 7.5 7.5h99.390625c-1.910156 4.667968-2.300781 9.800781-1.078125 14.792968 1.535156 6.238282 5.40625 11.511719 10.890625 14.832032l12.894531 7.832031h-83.359375c-13.238281 0-23.972656 10.183593-24.433594 23.183593-.125 3.460938.476563 6.824219 1.734376 9.925782h-7.691407c-6.589843 0-12.734375 2.609375-17.3125 7.351562-4.570312 4.738282-6.964843 10.980469-6.726562 17.574219.363281 10.300781 7.179687 18.832031 16.582031 21.933594-1.488281 3.125-2.320312 6.617187-2.320312 10.304687 0 13.261719 10.792968 24.054688 24.054687 24.054688h11.363281c-1.140625 2.796875-1.769531 5.855468-1.769531 9.054687 0 13.265625 10.792969 24.054688 24.054687 24.054688h54.207032c-3.152344 11.921875-5.179688 18.605469-6.433594 22.328125zm97.929688-47.734375c-.441407.054687-.871094.148437-1.292969.277343-21.570313 6.71875-43.964844 10.125-66.558594 10.125h-77.851563c-4.992187 0-9.054687-4.0625-9.054687-9.054687s4.0625-9.054687 9.054687-9.054687h49.160157c4.140625 0 7.5-3.359376 7.5-7.5 0-4.144532-3.359375-7.5-7.5-7.5h-82.808594c-4.992187 0-9.054687-4.0625-9.054687-9.054688s4.0625-9.054688 9.054687-9.054688h82.808594c4.140625 0 7.5-3.355468 7.5-7.5 0-4.144531-3.359375-7.5-7.5-7.5h-96.691407c-5.039062 0-9.273437-3.910156-9.445312-8.71875-.085938-2.484374.8125-4.839843 2.53125-6.625 1.726562-1.78125 4.039062-2.765624 6.519531-2.765624h97.085938c4.140625 0 7.5-3.359376 7.5-7.5 0-4.144532-3.359375-7.5-7.5-7.5h-67.089844c-2.480469 0-4.796875-.984376-6.519531-2.769532-1.71875-1.78125-2.617188-4.136718-2.53125-6.625.171875-4.804687 4.410156-8.714844 9.445312-8.714844h103.378906c4.261719 0 7.898438-2.757812 9.050782-6.863281 1.148437-4.105469-.527344-8.351562-4.171875-10.5625l-30.011719-18.230469c-2.070312-1.253906-3.523438-3.234374-4.101562-5.585937-.578126-2.347656-.207032-4.78125 1.046874-6.847656 2.585938-4.273438 8.167969-5.640625 12.429688-3.0625l76.574219 46.511719c3.160156 1.917968 5.957031 4.339843 8.316406 7.191406 6.132813 7.410156 14.007813 11.855468 37.804687 14.457031v84.085937zm95.121093 1.019531c0 .695312-.566406 1.261719-1.261719 1.261719h-30.515624c-.695313 0-1.265626-.566407-1.265626-1.261719v-96.875c0-.695312.566407-1.261719 1.265626-1.261719h30.515624c.695313 0 1.261719.566407 1.261719 1.261719zm0 0"/><path d="m359.128906 487.804688-39.0625-31.425782c-3.226562-2.597656-7.949218-2.082031-10.542968 1.144532-2.597657 3.226562-2.085938 7.949218 1.140624 10.542968l35.96875 28.933594h-223.4375l36.042969-28.992188c3.226563-2.59375 3.738281-7.316406 1.140625-10.542968-2.59375-3.230469-7.316406-3.738282-10.542968-1.144532l-39.136719 31.480469c-4.558594 3.667969-6.246094 9.601563-4.304688 15.117188 1.941407 5.515625 6.980469 9.082031 12.828125 9.082031h231.382813c5.847656 0 10.882812-3.5625 12.828125-9.082031 1.941406-5.515625.253906-11.449219-4.304688-15.113281zm0 0"/></svg>