<svg height="493pt" viewBox="-138 0 493 493.99799" width="493pt" xmlns="http://www.w3.org/2000/svg"><path d="m77.5 261.160156v193.238282l-43.289062 25.015624c-3.105469 1.746094-4.609376 5.394532-3.632813 8.820313 1.003906 3.476563 4.222656 5.84375 7.835937 5.761719h140.167969c3.589844.078125 6.777344-2.296875 7.730469-5.761719 1.015625-3.425781-.4375-7.105469-3.527344-8.910156l-43.285156-24.925781v-193.238282c43.65625-4.285156 76.949219-40.96875 77-84.835937v-168.675781c0-4.417969-3.800781-7.648438-8.222656-7.648438h-199.558594c-4.417969 0-8.21875 3.230469-8.21875 7.648438v168.675781c.050781 43.867187 33.34375 80.546875 77 84.835937zm34.605469-208.511718c1.496093 2.0625 3.871093 3.304687 6.417969 3.351562h17.800781l-34.199219 69.605469 1.789062-40.992188c.097657-2.21875-.703124-4.386719-2.214843-6.011719-1.496094-1.613281-3.582031-2.550781-5.777344-2.601562h-18.183594l12.988281-60h29.074219l-8.9375 29.6875c-.726562 2.386719-.265625 4.976562 1.242188 6.960938zm-95.605469-36.648438h57.863281l-14.347656 66.699219c-.503906 2.304687.085937 4.710937 1.601563 6.519531 1.539062 1.828125 3.832031 2.851562 6.222656 2.78125h19.722656l-3.097656 70.898438c-.199219 3.796874 2.296875 7.207031 5.972656 8.167968 3.675781.957032 7.519531-.796875 9.203125-4.207031l56.699219-115.597656c1.214844-2.433594 1.066406-5.328125-.394532-7.625-1.476562-2.3125-4.046874-3.6875-6.785156-3.636719h-19.886718l7.226562-24h64v160.324219c.003906 38.183593-30.917969 69.152343-69.101562 69.207031-2.109376.007812-4.132813.851562-5.613282 2.355469-1.484375 1.503906-2.304687 3.535156-2.28125 5.644531v205.5c-.082031 2.785156 1.378906 5.382812 3.800782 6.761719l21.316406 12.207031h-80.242188l21.320313-12.210938c2.417969-1.375 3.882812-3.972656 3.800781-6.757812v-205.5c.023438-2.109375-.800781-4.144531-2.28125-5.644531-1.484375-1.503907-3.507812-2.351563-5.621094-2.355469-38.179687-.054688-69.101562-31.023438-69.097656-69.207031zm0 0"/></svg>