<svg height="512" viewBox="0 0 56 60" width="512" xmlns="http://www.w3.org/2000/svg"><g id="Page-1" fill="none" fill-rule="evenodd"><g id="001---Leather-Tag" fill="rgb(0,0,0)" fill-rule="nonzero"><path id="Shape" d="m8 32c0 7.281-2.172 12.08-6.642 14.672-.93845266.5499781-1.26759859 1.7476789-.742 2.7l4.072 7.328c.48870291.8816997 1.55721371 1.2618718 2.493.887 3.3-1.329 14.478-5.108 20.029 2.03.1894263.2440794.4810387.3868932.79.3868932s.6005737-.1428138.79-.3868932c5.552-7.137 16.734-3.359 20.03-2.03.9355072.3742815 2.003364-.0058104 2.492-.887l4.072-7.33c.5255986-.9523211.1964527-2.1500219-.742-2.7-4.47-2.59-6.642-7.389-6.642-14.67 0-7.94 5.4-14 7.058-15.671.7280216-.7303749.7770792-1.8960376.113-2.685l-4.049-4.86c-.4401183-.52676622-1.1196311-.79102118-1.8-.7-9.487 1.245-12.38-4.284-13.183-6.723-.2707945-.81579407-1.0354456-1.36497093-1.895-1.361h-12.488c-.8595544-.00397093-1.6242055.54520593-1.895 1.361-.8 2.436-3.7 7.969-13.179 6.726-.68036895-.09102118-1.35988171.17323378-1.8.7l-4.05 4.861c-.66407924.7889624-.61502156 1.9546251.113 2.685 1.655 1.667 7.055 7.727 7.055 15.667zm-1.578-21.93c11.278 1.479 14.59-5.814 15.334-8.07l12.484-.013c.747 2.269 4.062 9.558 15.344 8.076l4.054 4.858c-1.792 1.806-7.638 8.379-7.638 17.079 0 8.056 2.5 13.421 7.636 16.4l-4.069 7.333c-3.479-1.4-14.981-5.266-21.567 1.734-2.912-3.098-6.784-4.067-10.5-4.067-3.7983557.0995294-7.54710951.8876351-11.064 2.326l-4.075-7.326c5.139-2.979 7.639-8.344 7.639-16.4 0-8.7-5.846-15.273-7.635-17.076z"/><path id="Shape" d="m29.228 51.562c-.419.224-.83.467-1.228.727-.4-.26-.809-.5-1.228-.727-.3152869-.1680935-.6963008-.1552147-.9995175.033785-.3032166.1889997-.4825702.5254068-.4705.8825.0120703.3570932.2137306.6806216.5290175.848715.5497499.2934741 1.0795643.6228543 1.586.986.3484532.2500371.8175468.2500371 1.166 0 .5064357-.3631457 1.0362501-.6925259 1.586-.986.4873913-.25985.6718499-.8656087.4119999-1.353-.2598499-.4873912-.8656086-.6718499-1.3529999-.412z"/><path id="Shape" d="m23.438 50.212c-1.1444038-.3291339-2.3156091-.5566823-3.5-.68-.3553006-.0375129-.7036248.1173744-.9137623.4063173-.2101374.288943-.2501632.6680442-.105.9945s.4534617.5506698.8087623.5881827c1.0672947.1102558 2.1227425.3147195 3.154.611.0908241.027295.1851632.0411089.28.041.4986095.0007256.9215703-.365964.9915557-.8596379.0699854-.493674-.2343909-.9634741-.7135557-1.1013621z"/><path id="Shape" d="m16.4 49.429c-1.1702863.0509554-2.336602.170158-3.493.357-.5135633.083605-.8771992.5470675-.8362143 1.0657749.040985.5187073.4728938.919311.9932143.9212251.0535738.0004438.1070917-.00357.16-.012 1.0785713-.1746674 2.1664236-.2861907 3.258-.334.3572656-.0146479.6795781-.218782.8455254-.535507.1659474-.3167251.1503183-.6979229-.041-1.0000001-.1913182-.3020771-.5292598-.4791408-.8865254-.4644929z"/><path id="Shape" d="m9.482 50.514c-.40866667.108-.80233333.2186667-1.181.332l-.737-1.325c.318-.292.62366667-.594.917-.906.37514387-.4030153.35392956-1.0334647-.04745758-1.4103501-.40138714-.3768855-1.03192244-.3584013-1.41054242.0413501-.42866576.4560984-.88449619.8858814-1.365 1.287-.36909655.3075234-.4673495.8340584-.234 1.254l1.523 2.74c.1764353.3172782.5109644.514015.874.514.10385751-.0002191.20706369-.0164083.306-.048.575-.185 1.2-.37 1.865-.546.3547426-.0825946.6365224-.3515349.7355593-.7020429.0990368-.350508-.0003341-.7271433-.2593984-.9831704-.2590642-.2560272-.63684509-.3509499-.9861609-.2477867z"/><path id="Shape" d="m11.9 40.545c-.5216328-.1814233-1.0915728.0943685-1.273.616-.3888258 1.1276577-.88650637 2.2147848-1.486 3.246-.27901316.4763687-.11921135 1.0887184.357 1.368.15138272.0897544.32401073.1373997.5.138.3555146.000313.6844652-.1881483.864-.495.6656621-1.1435391 1.2182749-2.3492398 1.65-3.6.1817961-.5204874-.091962-1.0899222-.612-1.273z"/><path id="Shape" d="m11.4 26.835c.2761788 1.1727019.4590835 2.365428.547 3.567.0378233.5239851.4746533.9293633 1 .928h.074c.2645666-.0191942.5106673-.1427187.6841454-.3433907s.2601183-.4620477.2408546-.7266093c-.0960045-1.3069663-.2949549-2.6043234-.595-3.88-.0818138-.3477981-.3429609-.6255296-.6850698-.7285758-.3421089-.1030461-.713205-.0157518-.9735.229-.2602951.2447519-.370244.6097777-.2884302.9575758z"/><path id="Shape" d="m12.515 38.842c.483552-.0005856.8974116-.3470825.983-.823.2257577-1.2785156.3736965-2.5695566.443-3.866.0301241-.5503463-.3907419-1.0213048-.941-1.053-.5496955-.0251561-1.018564.3939368-1.055.943-.0645912 1.2153084-.2031814 2.4255513-.415 3.624-.0468648.2611122.0119438.5301459.1634823.7478887.1515385.2177429.3833872.366349.6445177.4131113.0585097.0095668.1177139.0142496.177.014z"/><path id="Shape" d="m11.236 24.013c.3314693.0001892.641493-.1638835.8277556-.43807.1862625-.2741865.2245567-.6228526.1022444-.93093-.4822303-1.2097074-1.0437843-2.3862649-1.681-3.522-.2728294-.4754467-.87756765-.6426289-1.3558687-.3748351s-.65185959.870733-.3891313 1.3518351c.59368976 1.0583285 1.11682842 2.1547149 1.566 3.282.1509902.3815069.5197007.6320715.93.632z"/><path id="Shape" d="m7.629 14.855.516-.618c.383.018.762.027 1.134.027h.438c.5522847-.009665.992165-.4652153.9825-1.0175s-.4652153-.992165-1.0175-.9825h-.4c-.494 0-1-.017-1.515-.052-.31926329-.0209575-.62927896.1121188-.834.358l-1.366 1.636c-.3071709.3702513-.3071709.9067487 0 1.277.382.461.782.971 1.188 1.527.32584801.4462461.95175392.543848 1.39799999.218s.543848-.9517539.21800001-1.398c-.25133333-.3406667-.49866667-.6656667-.742-.975z"/><path id="Shape" d="m14.69 13.531c.0958214.000115.191151-.013696.283-.041 1.7306785-.5028326 3.3630347-1.2968604 4.827-2.348.4476268-.3236389.5481389-.9488732.2245-1.3965-.3236389-.44762679-.9488732-.54813886-1.3965-.2245-1.2797115.9185795-2.7068911 1.6118776-4.22 2.05-.4781125.1394458-.7807399.6094564-.7098145 1.1024131s.4937826.8585864.9918145.8575869z"/><path id="Shape" d="m22.716 7.715c.330274.00030016.6393952-.16249369.826-.435.282-.411.547-.84.793-1.28h1.4c.5522847 0 1-.44771525 1-1s-.4477153-1-1-1h-2c-.3752343-.00000759-.7188932.2100491-.89.544-.2836313.55533805-.6022737 1.09208676-.954 1.607-.2089575.30594166-.2316411.70233959-.0589481 1.03012099s.5124578.53322187.8829481.53387901z"/><path id="Shape" d="m30.264 6h1.4c.246.44.511.869.793 1.28.1972523.30549431.5447943.47983189.9076063.45528276.362812-.02454912.6837012-.24411508.8380023-.57339671s.1176905-.71637168-.0956086-1.01088605c-.3517263-.51491324-.6703687-1.05166195-.954-1.607-.1709427-.33363096-.5141255-.54363261-.889-.544h-2c-.5522847 0-1 .44771525-1 1s.4477153 1 1 1z"/><path id="Shape" d="m41.023 13.489c.0918021.0276287.1871307.0417764.283.042.4980319.0009995.9208891-.3646302.9918145-.8575869s-.231702-.9629673-.7098145-1.1024131c-1.5122855-.4391348-2.9386957-1.1327259-4.218-2.051-.2885027-.22689261-.6781168-.27750417-1.0150138-.13185207-.3368969.14565209-.5669289.46415796-.599274.82976407-.0323452.3656062.1381952.7195507.4442878.922088 1.4623068 1.0517089 3.0933932 1.8461152 4.823 2.349z"/><path id="Shape" d="m46.283 14.26h.438c.372 0 .751-.009 1.135-.027l.515.618c-.2426667.308-.4893333.633-.74.975-.3255718.4462461-.227746 1.0719281.2185 1.3975.4462461.3255718 1.0719281.2277461 1.3975-.2185.406-.556.806-1.065 1.188-1.526.3077244-.3704282.3077244-.9075718 0-1.278l-1.365-1.631c-.2057282-.2451098-.5156194-.3779733-.835-.358-.515.035-1.021.052-1.514.052h-.4-.021c-.5522847-.0046944-1.0038056.4392153-1.0085.9915s.4392153 1.0038056.9915 1.0085z"/><path id="Shape" d="m43.481 38.819c.0593164-.0000247.1185254-.0050424.177-.015.2611082-.0465405.4930329-.1949023.6447507-.4124458.1517179-.2175436.2108004-.4864479.1642493-.7475542-.2102915-1.198586-.3478761-2.4087967-.412-3.624-.0303757-.5522847-.5027153-.9753757-1.055-.945s-.9753757.5027153-.945 1.055c.0683982 1.2960436.2153346 2.5867462.44 3.865.0853594.4774294.5010005.8247807.986.824z"/><path id="Shape" d="m44.1 40.522c-.5215013.1810214-.7976754.7503787-.617 1.272.4293658 1.2508758.9803345 2.4566431 1.645 3.6.1776786.3138869.5106217.5077691.8713079.5073871s.693218-.1949689.8702313-.5092315.1710755-.6994978-.0155392-1.0081556c-.5982417-1.0316539-1.0945846-2.1191205-1.482-3.247-.181848-.5207042-.7509521-.7958606-1.272-.615z"/><path id="Shape" d="m44.4 23.919c.1172078.0475653.2425084.0720142.369.072.4102993.0000715.7790098-.2504931.93-.632.4498579-1.1266736.9736654-2.2223933 1.568-3.28.2552787-.4799483.0803887-1.0759166-.3937612-1.3418103s-1.0738617-.1043065-1.3502388.3638103c-.6382604 1.1348055-1.2004961 2.3107234-1.683 3.52-.2035547.513069.0470936 1.0940359.56 1.298z"/><path id="Shape" d="m42.989 31.3h.074c.5253467.0013633.9621767-.4040149 1-.928.0889719-1.2013148.2728794-2.3937042.55-3.566.091996-.3512633-.0136458-.7247929-.2759881-.975842s-.640156-.3401635-.9870342-.2328102c-.3468781.1073532-.6083061.3943027-.6829777.7496522-.3024236 1.2754055-.5030546 2.5728195-.6 3.88-.0201195.264575.0657361.5262995.2386634.7275479.1729273.2012483.4187474.3255196.6833366.3454521z"/><path id="Shape" d="m48.436 49.521-.736 1.325c-.378-.1126667-.7716667-.2233333-1.181-.332-.3493158-.1031632-.7270967-.0082405-.9861609.2477867-.2590643.2560271-.3584352.6326624-.2593984.9831704.0990369.350508.3808167.6194483.7355593.7020429.665.176 1.29.361 1.865.546.0989363.0315917.2021425.0477809.306.048.3630356.000015.6975647-.1967218.874-.514l1.523-2.741c.232788-.4197037.1345756-.945602-.234-1.253-.4802619-.4013912-.9360764-.8311591-1.365-1.287-.2441234-.2622606-.6099022-.3738712-.958855-.2925768s-.6277454.3430687-.7308286.6862169-.0147018.7152233.2316836.9753599c.2926667.3113333.598.6133333.916.906z"/><path id="Shape" d="m43.1 49.787c-1.1560126-.1874052-2.322009-.3069432-3.492-.358-.5459186-.0071343-1.0023755.4133327-1.04.958-.0225545.5516997.4063075 1.0172701.958 1.04 1.0915579.0480627 2.1793955.1595844 3.258.334.0525452.0087556.1057304.0131041.159.013.5203205-.0019141.9522293-.4025178.9932143-.9212251.0409849-.5187074-.322651-.9821699-.8362143-1.0657749z"/><path id="Shape" d="m36.072 49.532c-1.1843282.1226789-2.3555311.3495576-3.5.678-.3431536.0998557-.6069683.3751965-.6920675.7223041s.0214456.7132482.2795.9605c.2580545.2472519.6284139.3380517.9715675.2381959 1.0316057-.2960358 2.0873933-.5001659 3.155-.61.5492472-.0579899.9474899-.5502528.8895-1.0995s-.5502528-.9474899-1.0995-.8895z"/><path id="Shape" d="m25 11c0 1.6568542 1.3431458 3 3 3s3-1.3431458 3-3c0-1.65685425-1.3431458-3-3-3s-3 1.34314575-3 3zm3-1c.5522847 0 1 .4477153 1 1s-.4477153 1-1 1-1-.4477153-1-1 .4477153-1 1-1z"/></g></g></svg>