<svg id="Capa_1" enable-background="new 0 0 512 512" height="512" viewBox="0 0 512 512" width="512" xmlns="http://www.w3.org/2000/svg"><path d="m454.244 232.824h24.258c18.471 0 33.498-15.027 33.498-33.498s-15.027-33.498-33.498-33.498h-8.162c-1.148-22.868-7.584-35.831-13.007-46.353h21.169c18.471 0 33.498-15.027 33.498-33.498s-15.027-33.498-33.498-33.498h-16.829c6.148-13.45 7.572-25.817-1.107-38.168-6.296-8.961-16.593-14.311-27.557-14.311-14.394 0-27.225 9.24-31.927 22.991-3.21 9.389-9.05 16.862-13.625 29.488h-39.133c1.047-2.292 2.072-4.738 3.022-7.376 3.716-10.313 2.173-21.824-4.128-30.792-6.296-8.961-16.593-14.311-27.557-14.311-14.394 0-27.225 9.239-31.927 22.991-1.52 4.444-3.683 8.556-5.974 12.909-2.513 4.775-5.292 10.055-7.666 16.58h-39.118c1.048-2.292 2.072-4.738 3.023-7.376 3.716-10.313 2.172-21.825-4.129-30.793-6.297-8.961-16.594-14.311-27.558-14.311-14.394 0-27.225 9.239-31.927 22.991-1.52 4.444-3.684 8.556-5.975 12.909-2.51 4.769-5.274 10.021-7.65 16.579h-39.132c6.148-13.449 7.573-25.815-1.107-38.168-6.296-8.961-16.593-14.311-27.558-14.311-14.394 0-27.224 9.24-31.926 22.991-3.212 9.394-9.063 16.909-13.641 29.488h-13.898c-18.471 0-33.498 15.028-33.498 33.499s15.027 33.498 33.498 33.498h66.985c1.006 2.09 2.055 4.123 3.083 6.117 5.854 11.347 11.908 23.081 11.908 47.571v.104c0 .021-.001.041-.001.062 0 .015 0 .031.001.046-.061 44.48-21.998 49.402-21.998 82.619 0 9.361 1.715 16.492 4.377 23.183h-39.059c-1.554-6.938-2.313-14.577-2.313-23.183 0-46.444 21.998-48.332 21.998-82.831 0-14.135-4.107-23.46-8.313-31.799-1.866-3.699-6.376-5.184-10.074-3.318s-5.184 6.376-3.318 10.074c2.77 5.492 5.18 10.774 6.194 17.709h-29.47c-18.471-.002-33.498 15.025-33.498 33.496s15.027 33.498 33.498 33.498h9.947c-2.58 13.886-2.69 31.909.035 46.353h-9.982c-18.471-.001-33.498 15.027-33.498 33.497s15.027 33.498 33.498 33.498h29.49c-2.283 16.173-12.723 24.434-18.243 46.353h-11.247c-18.471 0-33.498 15.027-33.498 33.497s15.027 33.498 33.498 33.498h13.999c4.464 12.32 10.304 20.332 13.469 29.495 4.751 13.748 17.582 22.985 31.928 22.985 10.95 0 21.25-5.35 27.552-14.311 6.292-8.948 7.843-20.43 4.147-30.715-.954-2.656-1.982-5.13-3.033-7.454h39.27c4.423 12.156 10.354 20.434 13.484 29.495 4.751 13.748 17.582 22.985 31.928 22.985 10.951 0 21.251-5.35 27.553-14.311 6.292-8.947 7.842-20.43 4.146-30.714-.954-2.656-1.982-5.13-3.033-7.454h39.285c4.468 12.33 10.301 20.324 13.469 29.494 4.75 13.748 17.581 22.985 31.927 22.985 10.951 0 21.251-5.35 27.553-14.311 6.292-8.947 7.843-20.429 4.147-30.714-.954-2.656-1.982-5.13-3.033-7.454h39.269c4.491 12.343 10.313 20.315 13.484 29.494 4.75 13.748 17.581 22.985 31.928 22.985 10.951 0 21.25-5.35 27.552-14.311 8.982-12.77 6.969-25.217 1.115-38.169h16.896c18.471 0 33.498-15.027 33.498-33.498s-15.027-33.498-33.498-33.498h-21.175c5.433-10.338 11.884-23.094 13.018-46.353h8.157c18.471 0 33.498-15.027 33.498-33.498s-15.027-33.498-33.498-33.498h-24.197c-7.984-16.36-7.605-31.066-.059-46.351zm-420.746-15c-10.2 0-18.498-8.298-18.498-18.498s8.298-18.498 18.498-18.498h29.444c-2.027 13.657-9.668 21.322-15.414 36.996zm463.502-18.498c0 10.2-8.298 18.498-18.498 18.498-30.372 0-104.81 0-130.037 0 4.01-8.876 7.658-20.175 8.516-36.996h121.521c10.2 0 18.498 8.298 18.498 18.498zm-253.374 131.846c-.873-16.622-4.548-27.987-8.574-36.996 3.367 0 149.135.002 152.609 0 5.656 15.43 13.26 23.738 15.303 36.996zm27.817 61.353h-40.813c5.433-10.338 11.884-23.094 13.018-46.353h46.038c-2.283 16.173-12.724 24.433-18.243 46.353zm-97.801 0c6.078-19.796 18.184-28.539 18.184-53.699 0-24.59-12.158-34.133-18.211-54.029-.048-.187-.104-.372-.166-.553-4.628-15.634-4.56-36.919-1.373-51.421h39.058c-8.615 21.818-3.43 40.581 5.78 58.433 5.838 11.316 11.875 23.017 11.908 47.369 0 .016-.001.031-.001.047 0 .021.001.042.001.064v.091c0 24.919-6.027 36.375-11.856 47.454-1.068 2.031-2.158 4.103-3.201 6.245h-40.123zm-56.361 0c5.433-10.338 11.884-23.094 13.018-46.353h46.037c-2.286 16.2-12.774 24.534-18.266 46.353zm51.125-247.748c3.669 7.11 6.736 13.056 7.909 21.051h-46.021c-1.147-22.868-7.583-35.831-13.006-46.353h40.875c2.747 10.773 6.743 18.518 10.243 25.302zm-38.122 36.051h159.355c-3.203 21.582-21.461 30.019-21.461 75.165 0 8.411.658 16.074 2 23.183h-42.57c-7.991-16.371-7.601-31.077-.061-46.353h16.788c4.142 0 7.5-3.358 7.5-7.5s-3.358-7.5-7.5-7.5c-12.05 0-109.003 0-122.567 0 4.01-8.875 7.657-20.174 8.516-36.995zm272.721-15h-46.014c-1.147-22.868-7.583-35.831-13.006-46.353h40.875c5.596 21.95 15.786 30.297 18.145 46.353zm-75.824-46.353c1.006 2.09 2.054 4.123 3.083 6.117 9.139 17.714 11.674 27.553 11.907 47.816-.039 24.75-6.046 36.162-11.855 47.2-10.213 19.408-13.938 38.031-5.767 58.569h-39.058c-1.554-6.938-2.313-14.577-2.313-23.183 0-24.918 6.027-36.37 11.855-47.445 23.731-45.091-.131-63.776-7.956-89.073h40.104zm-55.687 0c5.515 21.639 15.835 30.435 18.17 46.353h-46.022c-1.148-22.868-7.584-35.831-13.007-46.353zm112.047 159.701h-42.579c-7.931-16.308-7.661-31.021-.071-46.353h42.581c-2.498 13.505-2.731 31.566.069 46.353zm113.459-193.198c0 10.2-8.298 18.498-18.498 18.498h-27.911c-1.292-4.13-2.069-8.629-2.069-14.144 0-9.753 2.295-16.2 5.561-22.852h24.42c10.199-.001 18.497 8.298 18.497 18.498zm-81.725-58.133c2.627-7.683 9.754-12.845 17.748-12.845 6.161 0 11.727 2.892 15.27 7.935 12.96 18.444-14.771 33.521-14.771 67.396 0 31.583 19.706 37.386 21.803 75.497h-37.197c-3.119-28.077-21.602-33.033-21.602-75.497 0-35.659 12.376-43.849 18.749-62.486zm-33.048 76.63h-50.054c-.109-.002-.219-.002-.328 0h-54.172c-.09-.002-.18-.001-.27 0h-53.51c-1.292-4.13-2.069-8.629-2.069-14.144 0-9.753 2.295-16.2 5.561-22.852h51.98c.054.001.107.002.161.002.055 0 .111-.001.166-.002h56.336c.078.001.156.001.233 0h47.171c-2.18 11.939-2.364 25.88-1.205 36.996zm-87.194-61.589c2.457-4.668 4.997-9.496 6.894-15.041 2.627-7.683 9.754-12.845 17.748-12.845 6.161 0 11.727 2.892 15.27 7.935 3.548 5.05 4.383 11.276 2.29 17.084-1.67 4.637-3.644 8.647-5.626 12.46h-41.343c1.52-3.424 3.158-6.537 4.767-9.593zm-106.455-15.041c2.627-7.683 9.754-12.845 17.748-12.845 6.161 0 11.727 2.892 15.269 7.934 12.99 18.487-14.771 33.395-14.771 67.397 0 31.531 19.703 37.325 21.803 75.497h-37.197c-3.073-27.662-21.602-33.584-21.602-75.497.001-35.659 12.377-43.849 18.75-62.486zm-113.348-.001c2.627-7.682 9.753-12.844 17.748-12.844 6.161 0 11.727 2.892 15.27 7.935 6.859 9.761 2.182 18.929-3.336 29.545h-41.344c3.866-8.707 8.533-15.486 11.662-24.636zm-60.23 58.134c0-10.2 8.298-18.498 18.498-18.498h123.236c-2.179 11.938-2.363 25.879-1.205 36.996h-122.031c-10.2-.001-18.498-8.299-18.498-18.498zm99.193 146.846h42.581c-2.498 13.505-2.731 31.566.069 46.353h-42.578c-7.93-16.31-7.662-31.021-.072-46.353zm-99.193 79.85c0-10.2 8.298-18.498 18.498-18.498h127.466c5.656 15.43 13.26 23.738 15.303 36.996h-142.769c-10.2 0-18.498-8.298-18.498-18.498zm18.498 131.847c-10.2 0-18.498-8.298-18.498-18.498s8.298-18.498 18.498-18.498h8.662c-.436 4.293-.68 8.984-.68 14.138 0 8.848.745 16.356 1.954 22.857h-9.936zm74.679 44.539c-3.548 5.046-9.119 7.94-15.283 7.94-7.954 0-15.086-5.178-17.75-12.884-6.396-18.512-18.664-27.641-18.664-62.453 0-42.968 18.572-47.137 21.616-75.491h37.189c-2.069 38.864-21.81 43.101-21.81 75.491 0 22.92 10.835 33.224 17.001 50.384 2.078 5.78 1.24 11.981-2.299 17.013zm115.649-17.013c2.077 5.78 1.239 11.981-2.3 17.013-3.548 5.046-9.119 7.94-15.283 7.94-7.954 0-15.087-5.178-17.75-12.884-3.09-8.942-7.706-15.953-11.502-24.595h41.256c1.962 3.853 3.916 7.899 5.579 12.526zm-109.726-27.526c-6.428-13.273-6.964-26.133-3.621-36.996h158.379c-.436 4.293-.68 8.984-.68 14.138 0 8.848.745 16.356 1.954 22.857-22.599.001-134.157.001-156.032.001zm220.774 44.539c-3.548 5.046-9.119 7.94-15.283 7.94-7.954 0-15.087-5.178-17.75-12.884-6.391-18.496-18.664-27.641-18.664-62.453 0-43.081 18.568-47.105 21.616-75.491h37.189c-1.062 19.949-6.445 30.18-11.668 40.107-22.884 43.495-1.361 62.894 6.86 85.768 2.077 5.78 1.239 11.981-2.3 17.013zm113.348.001c-3.548 5.045-9.119 7.939-15.283 7.939-7.954 0-15.087-5.178-17.75-12.884-3.088-8.938-7.708-15.958-11.502-24.595h41.256c5.442 10.678 10.133 19.794 3.279 29.54zm48.778-63.039c0 10.2-8.298 18.498-18.498 18.498h-137.705c-3.299-6.813-5.624-13.314-5.624-22.857 0-5.574.75-10.068 2.003-14.138h107.946c.054.001.107.002.161.002s.108-.001.162-.002h33.058c10.199 0 18.497 8.298 18.497 18.497zm-153.022-33.497c5.433-10.338 11.884-23.094 13.018-46.353h46.033c-.987 6.985-3.327 12.112-5.864 17.102-1.878 3.692-.407 8.207 3.286 10.084 3.695 1.88 8.21.403 10.084-3.286 3.865-7.599 7.987-16.907 7.987-31.246 0-24.59-12.158-34.133-18.211-54.029-4.921-19.085-4.701-37.583-1.54-51.974h39.058c-8.136 20.606-4.262 38.963 5.78 58.433 5.838 11.316 11.875 23.017 11.908 47.369 0 .016-.001.031-.001.047 0 .021.001.042.001.064v.091c0 24.919-6.027 36.375-11.856 47.454-1.068 2.031-2.158 4.103-3.201 6.245h-96.482zm153.022-79.851c0 10.2-8.298 18.498-18.498 18.498h-8.178c-.873-16.622-4.548-27.987-8.574-36.996h16.753c10.199 0 18.497 8.299 18.497 18.498z"/></svg>