<svg height="512" viewBox="0 0 512 512" width="512" xmlns="http://www.w3.org/2000/svg"><g id="Icons_copy" data-name="Icons copy"><path d="m472 448h-88v-16a24.028 24.028 0 0 0 -24-24h-208a24.028 24.028 0 0 0 -24 24v16h-88a24 24 0 0 0 0 48h432a24 24 0 0 0 0-48zm-328-16a8.009 8.009 0 0 1 8-8h208a8.009 8.009 0 0 1 8 8v16h-224zm328 48h-432a8 8 0 0 1 0-16h432a8 8 0 0 1 0 16z"/><path d="m167.514 127.514h48v16.001h-48z" transform="matrix(.707 -.707 .707 .707 -39.73 175.113)"/><path d="m198.142 150.142h32.001v16.001h-32.001z" transform="matrix(.707 -.707 .707 .707 -49.103 197.74)"/><path d="m320 208h16v-160a8 8 0 0 0 -2.343-5.657l-24-24a8 8 0 0 0 -5.657-2.343h-208a8 8 0 0 0 -5.657 2.343l-24 24a8 8 0 0 0 -2.343 5.657v272a8 8 0 0 0 2.343 5.657l24 24a8 8 0 0 0 5.657 2.343h120v-16h-116.687l-19.313-19.313v-265.374l19.313-19.313h201.374l19.313 19.313z"/><path d="m96 48h16v16h-16z"/><path d="m288 48h16v16h-16z"/><path d="m96 304h16v16h-16z"/><path d="m488 280h-112a8 8 0 0 0 -5.657 2.343l-13.657 13.657h-28.686a8 8 0 0 0 -8 8h-40a8 8 0 0 0 -5.657 2.343l-36 36a24.971 24.971 0 0 0 35.314 35.314l25.656-25.657h20.687a8 8 0 0 0 8 8h160a8 8 0 0 0 8-8v-64a8 8 0 0 0 -8-8zm-192 56a8 8 0 0 0 -5.657 2.343l-28 28a8.97 8.97 0 1 1 -12.686-12.686l33.656-33.657h36.687v16zm56 8h-16v-32h16zm80 0h-32v-8a8.009 8.009 0 0 1 8-8h16a8.009 8.009 0 0 1 8 8zm48 0h-32v-8a24.028 24.028 0 0 0 -24-24h-16a24.028 24.028 0 0 0 -24 24v8h-16v-36.686l11.313-11.314h100.687z"/><path d="m264 296v-64h24v-16h-24v-16h24a8 8 0 0 0 8-8v-96a8 8 0 0 0 -8-8h-176a8 8 0 0 0 -8 8v96a8 8 0 0 0 8 8h136v16h-136v16h136v64zm-144-112v-80h160v80h-16v-16h-16v16z"/><path d="m215.846 247.436h16v33.129h-16z" transform="matrix(.966 -.259 .259 .966 -60.7 66.93)"/><path d="m182.597 241.524h15.999v58.387h-15.999z" transform="matrix(.866 -.5 .5 .866 -109.824 131.567)"/><path d="m143.999 234.745h16.001v90.51h-16.001z" transform="matrix(.707 -.707 .707 .707 -153.47 189.49)"/><path d="m128 305.481h16.001v18.475h-16.001z" transform="matrix(.5 -.866 .866 .5 -204.555 275.149)"/><path d="m112 376h88v16h-88z"/><path d="m312 376h80v16h-80z"/><path d="m369.22 239.632h46.295v16.001h-46.295z" transform="matrix(.707 -.707 .707 .707 -60.181 349.976)"/><path d="m291.503 243.503h81.99v15.999h-81.99z" transform="matrix(.5 -.866 .866 .5 -51.563 413.691)"/><path d="m271.59 256h33.129v16h-33.129z" transform="matrix(.259 -.966 .966 .259 -41.423 474.018)"/><path d="m408 376h16v16h-16z"/><path d="m80 376h16v16h-16z"/></g></svg>