<svg height="512" viewBox="0 0 58 58" width="512" xmlns="http://www.w3.org/2000/svg"><g id="Page-1" fill="none" fill-rule="evenodd"><g id="010---Meal-Time" fill-rule="nonzero"><path id="Shape" d="m43.7 47.94c-7.6921182 6.0005133-18.2574701 6.7286124-26.7 1.84v-.01c-8.44106993-4.8685386-13.09725848-14.3604476-11.78065445-24.0155438s8.34423395-17.55375725 17.78065445-19.9844562v7.23c-.0014703 1.8238506 1.233358 3.416779 3 3.87v9.49c-1.0101594 1.1441198-1.279968 2.7639006-.6952151 4.1736865.5847528 1.4097859 1.9218186 2.3630654 3.4452151 2.4563135l8.03 8.03z" fill="#84b5cb"/><path id="Shape" d="m53 29c.0123971 5.3497983-1.7889409 10.54583-5.11 14.74-.78-.84-1.65-1.74-2.63-2.72l-4.24-4.24-8.03-8.03c-.0527573-.8851188-.4014175-1.7268339-.99-2.39v-9.49c1.766642-.453221 3.0014703-2.0461494 3-3.87v-7.23c10.5935952 2.73525389 17.9963984 12.2889827 18 23.23z" fill="#84b5cb"/><path id="Shape" d="m11 40c-.0035746 1.8188123.1672065 3.6337795.51 5.42-5.80634745-6.176374-7.92063834-14.959242-5.56116814-23.101365 2.35947021-8.142123 8.84212434-14.43371989 17.05116814-16.548635v7.23c-.0022381 1.0224284.3879082 2.0067424 1.09 2.75-8.1762376 5.3562162-13.0987986 14.4755519-13.09 24.25z" fill="#9fc9d3"/><path id="Shape" d="m45.43 11.51c-3.4436476-.6557106-6.9778615-.6794301-10.43-.07v-5.67c2.1017685.54104193 4.1202444 1.36525294 6 2.45 1.5970454.92452574 3.0833335 2.0283379 4.43 3.29z" fill="#9fc9d3"/><path id="Shape" d="m28 .28v9.72c0 .5522847-.4477153 1-1 1s-1-.4477153-1-1v-9.73c.1513357.08640763.2894229.19418299.41.32.3798589.3704612.5928231.87940947.59 1.41.0001671-.71133964.3819015-1.36792281 1-1.72z" fill="#7f8c8d"/><path id="Shape" d="m35 2v11c.0014703 1.8238506-1.233358 3.416779-3 3.87-.3257307.0893041-.6622628.1330533-1 .13h-4c-.3377372.0030533-.6742693-.0406959-1-.13-1.766642-.453221-3.0014703-2.0461494-3-3.87v-11c-.0009091-.58196535.255286-1.13461489.7-1.51.3579866-.31821327.821036-.49274728 1.3-.49.3512598.00062334.6961604.09374649 1 .27.1513357.08640763.2894229.19418299.41.32.3798589.3704612.5928231.87940947.59 1.41.0001671-.71133964.3819015-1.36792281 1-1.72.2423973-.15023382.516139-.24262165.8-.27.133-.01333333.267-.01333333.4 0 .283861.02737835.5576027.11976618.8.27.1510147.08284534.2891357.18727833.41.31.3798589.3704612.5928231.87940947.59 1.41 0-1.1045695.8954305-2 2-2 .478964-.00274728.9420134.17178673 1.3.49.039097.03055794.0758652.06398362.11.1.3798589.3704612.5928231.87940947.59 1.41z" fill="#3b97d3"/><path id="Shape" d="m27 2v8c0 .5522847-.4477153 1-1 1s-1-.4477153-1-1v-10c.3512598.00062334.6961604.09374649 1 .27.1513357.08640763.2894229.19418299.41.32.3798589.3704612.5928231.87940947.59 1.41z" fill="#2980ba"/><path id="Shape" d="m33 0v10c0 .5522847-.4477153 1-1 1s-1-.4477153-1-1v-8c0-1.1045695.8954305-2 2-2z" fill="#2980ba"/><path id="Shape" d="m32 16.87v9.49c-.7574235-.8642798-1.850796-1.3599087-3-1.3599087s-2.2425765.4956289-3 1.3599087v-9.49c.3257307.0893041.6622628.1330533 1 .13h4c.3377372.0030533.6742693-.0406959 1-.13z" fill="#2980ba"/><path id="Shape" d="m52.33 55.16c-.1865093.1904993-.4434554.2954491-.71.29-.2628658.0015448-.5152412-.1030107-.7-.29l-7.22-7.22-6.92-6.92 4.24-4.24 4.24 4.24c.98.98 1.85 1.88 2.63 2.72 1.1680619 1.2513076 2.2695798 2.5631154 3.3 3.93 3.18 4.34 2.54 6.1 1.14 7.49z" fill="#3b97d3"/><path id="Shape" d="m41.02 36.78-4.24 4.24-8.03-8.03c.0830589.0083229.1665417.0116622.25.01 2.209139 0 4-1.790861 4-4 .0016622-.0834583-.0016771-.1669411-.01-.25z" fill="#2980ba"/><path id="Shape" d="m33 29c0 2.209139-1.790861 4-4 4-.0834583.0016622-.1669411-.0016771-.25-.01-1.8094457-.1099566-3.3187348-1.4230237-3.6780237-3.1998455-.3592889-1.7768217.5212565-3.5731342 2.1458226-4.377478 1.6245662-.8043439 3.5869581-.4156065 4.7822011.9473235.5885825.6631661.9372427 1.5048812.99 2.39.0083229.0830589.0116622.1665417.01.25z" fill="#fff"/><g fill="#464f5d"><path id="Shape" d="m29 54c-.5522847 0-1-.4477153-1-1v-3c0-.5522847.4477153-1 1-1s1 .4477153 1 1v3c0 .5522847-.4477153 1-1 1z"/><path id="Shape" d="m8 30h-3c-.55228475 0-1-.4477153-1-1s.44771525-1 1-1h3c.55228475 0 1 .4477153 1 1s-.44771525 1-1 1z"/><path id="Shape" d="m53 30h-3c-.5522847 0-1-.4477153-1-1s.4477153-1 1-1h3c.5522847 0 1 .4477153 1 1s-.4477153 1-1 1z"/><path id="Shape" d="m17 50.785c-.3570824-.000366-.6868739-.1911096-.8652566-.5004437s-.1782849-.6903138.0002566-.9995563l1.5-2.6c.1773616-.3119508.5082732-.5049532.8671183-.5057421s.6906021.1907567.8693336.5019247c.1787314.3111679.1770325.694247-.0044519 1.0038174l-1.5 2.6c-.1788068.3097028-.5093863.5003484-.867.5z"/><path id="Shape" d="m39.5 11.813c-.3570824-.000366-.6868739-.1911096-.8652566-.5004437s-.1782849-.6903138.0002566-.9995563l1.5-2.6c.2780058-.47421361.886647-.63512861 1.3626943-.36027453s.640996.88241457.3693057 1.36027453l-1.5 2.6c-.1788068.3097028-.5093863.5003484-.867.5z"/><path id="Shape" d="m8.217 42c-.45258806-.0000199-.84874105-.3040116-.96588095-.7411777s.07393969-.8985084.46588095-1.1248223l2.6-1.5c.3095704-.1814844.6926495-.1831833 1.0038174-.0044519.311168.1787315.5027136.5104885.5019247.8693336s-.1937913.6897567-.5057421.8671183l-2.6 1.5c-.15187005.0881308-.32441125.1343718-.5.134z"/><path id="Shape" d="m47.188 19.5c-.4525881-.0000199-.8487411-.3040116-.9658809-.7411777-.1171399-.4371661.0739396-.8985084.4658809-1.1248223l2.6-1.5c.47786-.2716903 1.0854205-.1067416 1.3602745.3693057.2748541.4760473.1139391 1.0846885-.3602745 1.3626943l-2.6 1.5c-.1520167.0877772-.324461.1339923-.5.134z"/><path id="Shape" d="m18.5 11.813c-.3576137.0003484-.6881932-.1902972-.867-.5l-1.5-2.6c-.2716903-.47785996-.1067416-1.08542045.3693057-1.36027453s1.0846885-.11393908 1.3626943.36027453l1.5 2.6c.1785415.3092425.1786393.6902222.0002566.9995563s-.5081742.5000777-.8652566.5004437z"/><path id="Shape" d="m10.813 19.5c-.175539-.0000077-.3479833-.0462228-.5-.134l-2.6-1.5c-.47421361-.2780058-.63512861-.886647-.36027453-1.3626943s.88241457-.640996 1.36027453-.3693057l2.6 1.5c.3919413.2263139.5830208.6876562.4658809 1.1248223-.1171398.4371661-.5132928.7411578-.9658809.7411777z"/></g><path id="Shape" d="m47.26 51.5c-5.1487434 4.2185973-11.6037357 6.5163766-18.26 6.5-14.9818748-.0043746-27.49428974-11.4200407-28.86916161-26.3386975s8.84042752-28.42886104 23.56916161-31.1713025c-.444714.37538511-.7009091.92803465-.7 1.51v3.77c-9.4364205 2.43069895-16.46405042 10.32936-17.78065445 19.9844562s3.33958452 19.1470052 11.78065445 24.0155438v.01c8.4425299 4.8886124 19.0078818 4.1605133 26.7-1.84z" fill="#ff5364"/><path id="Shape" d="m58 29c.008404 6.8326874-2.4043428 13.4473692-6.81 18.67-1.0304202-1.3668846-2.1319381-2.6786924-3.3-3.93 6.0447596-7.6859194 6.7935732-18.2802455 1.89-26.74-3.217784-5.5770438-8.5446379-9.62444364-14.78-11.23v-3.77c.0028231-.53059053-.2101411-1.0395388-.59-1.41-.0341348-.03601638-.070903-.06944206-.11-.1 13.739786 2.54755767 23.7056534 14.5360336 23.7 28.51z" fill="#ff5364"/></g></g></svg>