<?xml version="1.0" encoding="iso-8859-1"?>
<!-- Generator: Adobe Illustrator 19.0.0, SVG Export Plug-In . SVG Version: 6.00 Build 0)  -->
<svg version="1.1" id="Capa_1" xmlns="http://www.w3.org/2000/svg" xmlns:xlink="http://www.w3.org/1999/xlink" x="0px" y="0px"
	 viewBox="0 0 512 512" style="enable-background:new 0 0 512 512;" xml:space="preserve">
<rect x="333.384" y="352.159" style="fill:#B3B3B3;" width="15.223" height="101.487"/>
<polygon style="fill:#999999;" points="422.184,473.943 401.887,473.943 386.664,458.72 401.887,443.497 422.184,443.497 "/>
<rect x="254.731" y="443.497" style="fill:#B3B3B3;" width="147.156" height="30.446"/>
<path style="fill:#999999;" d="M417.11,354.188v150.2c0,4.204,3.407,7.611,7.612,7.611s7.611-3.408,7.611-7.611v-150.2H417.11z"/>
<path style="fill:#B3B3B3;" d="M249.657,354.188v150.2c0,4.204,3.407,7.611,7.611,7.611s7.612-3.408,7.612-7.611v-150.2H249.657z"/>
<path style="fill:#A45E43;" d="M302.938,88.801c-4.205,0-7.611,3.408-7.611,7.611c0,46.167-37.56,83.726-83.726,83.726h-46.684
	v15.223H211.6c54.561,0,98.949-44.388,98.949-98.949C310.549,92.209,307.142,88.801,302.938,88.801z"/>
<path style="fill:#C27749;" d="M165.931,296.848h-45.669c-32.177,0-58.355-26.177-58.355-58.355s26.177-58.355,58.355-58.355h45.669
	v15.223h-45.669c-23.783,0-43.132,19.348-43.132,43.132s19.348,43.132,43.132,43.132h45.669V296.848z"/>
<path style="fill:#A8E5FF;" d="M127.873,289.237v199.515l-25.24,8.413c-3.988,1.329-6.143,5.64-4.815,9.628
	c1.329,3.988,5.642,6.144,9.628,4.815l30.444-10.149c3.108-1.036,5.204-3.945,5.204-7.221V289.237H127.873z"/>
<path style="fill:#7DD9FF;" d="M203.988,289.237v199.515l25.24,8.413c3.988,1.329,6.143,5.64,4.815,9.628
	c-1.329,3.988-5.642,6.144-9.628,4.815l-30.444-10.149c-3.108-1.036-5.204-3.945-5.204-7.221V289.237H203.988z"/>
<path style="fill:#FF8646;" d="M363.83,203.932v-30.446h-22.835l-30.446,107.632h76.115v-47.699
	C386.664,219.232,376.961,207.313,363.83,203.932z"/>
<path style="fill:#FFA754;" d="M318.161,173.486v30.446c-13.131,3.381-22.834,15.3-22.834,29.487v47.699h45.669V173.486H318.161z"/>
<path style="fill:#FF8646;" d="M366.367,181.098h-50.743c-4.205,0-7.612-3.408-7.612-7.611c0-4.204,3.407-7.611,7.612-7.611h50.743
	c4.205,0,7.612,3.408,7.612,7.611C373.978,177.69,370.571,181.098,366.367,181.098z"/>
<path style="fill:#A45E43;" d="M191.302,167.453h-10.149l-20.297,106.561l50.743-30.446V187.75
	C211.6,176.54,202.512,167.453,191.302,167.453z"/>
<path style="fill:#C27749;" d="M140.559,167.453c-11.21,0-20.297,9.087-20.297,20.297v55.818l60.892,30.446V167.453H140.559z"/>
<path style="fill:#2DADE3;" d="M181.154,213.122c0,16.816,13.63,30.446,30.446,30.446v54.803l-15.223,21.82l15.223,21.82v30.446
	h-30.446l-30.446-79.667L181.154,213.122z"/>
<rect x="165.931" y="298.371" style="fill:#1990C2;" width="45.669" height="43.639"/>
<path style="fill:#49C9FF;" d="M181.154,213.122v159.334h-60.892V342.01l15.223-21.82l-15.223-21.82v-54.803
	c16.816,0,30.446-13.63,30.446-30.446H181.154z"/>
<rect x="120.262" y="298.371" style="fill:#2DADE3;" width="30.446" height="43.639"/>
<path style="fill:#FF8D7E;" d="M165.931,45.669V148.17l45.669-46.684V91.338C211.6,66.115,191.153,45.669,165.931,45.669z"/>
<path style="fill:#FFB4A9;" d="M165.931,45.669c-25.222,0-45.669,20.447-45.669,45.669v10.149l60.892,46.684V91.338
	C181.154,66.115,174.338,45.669,165.931,45.669z"/>
<path style="fill:#FFE2A8;" d="M184.918,101.487c-1.069-1.596-2.337-3.047-3.764-4.324l-15.223,70.291
	c25.222,0,45.669-20.447,45.669-45.669v-20.297H184.918z"/>
<g>
	<path style="fill:#FFF0D3;" d="M181.154,121.784V97.162c-4.04-3.619-9.372-5.824-15.223-5.824c-7.917,0-14.89,4.03-18.987,10.149
		h-26.682v20.297c0,25.222,20.447,45.669,45.669,45.669C174.338,167.453,181.154,147.006,181.154,121.784z"/>
	<circle style="fill:#FFF0D3;" cx="165.931" cy="22.834" r="22.834"/>
</g>
<g>
	<path style="fill:#49C9FF;" d="M120.262,251.179v-15.223c12.59,0,22.834-10.243,22.834-22.835v-45.669h15.223v45.669
		C158.319,234.107,141.247,251.179,120.262,251.179z"/>
	<path style="fill:#49C9FF;" d="M211.6,251.179c-20.985,0-38.057-17.072-38.057-38.057v-45.669h15.223v45.669
		c0,12.591,10.244,22.835,22.834,22.835V251.179z"/>
</g>
<polygon style="fill:#116F97;" points="409.499,265.895 379.053,342.01 439.945,311.564 439.945,265.895 "/>
<path style="fill:#1990C2;" d="M272.492,265.895v25.372c0,11.164,9.134,20.297,20.297,20.297l116.71,30.446v-76.115H272.492z"/>
<polygon style="fill:#B3B3B3;" points="409.499,311.565 394.276,342.01 409.499,372.456 439.945,372.456 439.945,311.564 "/>
<rect x="242.046" y="311.564" style="fill:#CCCCCC;" width="167.453" height="60.892"/>
<path style="fill:#49C9FF;" d="M442.482,273.506H269.954c-4.205,0-7.611-3.408-7.611-7.611s3.407-7.612,7.611-7.612h172.527
	c4.205,0,7.611,3.408,7.611,7.612S446.686,273.506,442.482,273.506z"/>
<circle style="fill:#4F4F4F;" cx="409.499" cy="342.01" r="7.611"/>
<g>
</g>
<g>
</g>
<g>
</g>
<g>
</g>
<g>
</g>
<g>
</g>
<g>
</g>
<g>
</g>
<g>
</g>
<g>
</g>
<g>
</g>
<g>
</g>
<g>
</g>
<g>
</g>
<g>
</g>
</svg>
